<?xml version="1.0" standalone="no"?>
<!DOCTYPE svg PUBLIC "-//W3C//DTD SVG 20010904//EN"
 "http://www.w3.org/TR/2001/REC-SVG-20010904/DTD/svg10.dtd">
<svg version="1.0" xmlns="http://www.w3.org/2000/svg"
 width="150.000000pt" height="150.000000pt" viewBox="0 0 150.000000 150.000000"
 preserveAspectRatio="xMidYMid meet">
<metadata>
Created by potrace 1.11, written by Peter Selinger 2001-2013
</metadata>
<g transform="translate(0.000000,150.000000) scale(0.100000,-0.100000)"
fill="#000000" stroke="none">
<path d="M1130 1266 c0 -31 2 -22 -16 -97 -14 -58 -87 -252 -103 -274 -4 -5
-18 -36 -31 -67 -12 -32 -26 -58 -30 -58 -4 0 -13 26 -20 58 -10 48 -18 61
-47 80 -31 20 -47 23 -128 21 l-92 -1 -27 -54 c-14 -30 -26 -61 -26 -68 0 -7
-6 -19 -13 -25 -11 -8 -16 -5 -25 14 -12 26 -37 119 -46 170 -3 17 -8 39 -10
50 -2 11 -10 62 -17 113 l-13 94 -39 20 -40 20 -174 -49 -174 -48 6 -35 c3
-19 8 -52 11 -74 3 -21 7 -46 9 -55 1 -9 6 -41 10 -71 10 -78 11 -88 44 -285
11 -66 23 -138 26 -160 3 -22 8 -46 10 -53 3 -7 7 -34 11 -60 3 -26 10 -51 14
-57 4 -5 8 -21 8 -35 0 -14 5 -44 11 -67 l12 -43 112 -1 c200 -2 199 -2 257
30 39 21 63 43 78 70 13 22 27 43 32 46 4 3 20 -30 35 -74 l26 -78 77 2 c163
5 189 12 262 71 62 50 68 59 84 116 9 35 42 126 72 203 31 77 66 167 79 201
13 33 36 87 52 120 28 57 29 62 17 115 -14 65 -23 124 -24 162 0 23 -8 31 -52
51 -29 13 -78 35 -108 48 -91 42 -100 43 -100 14z"/>
</g>
</svg>
