<?xml version="1.0" standalone="no"?>
<!DOCTYPE svg PUBLIC "-//W3C//DTD SVG 20010904//EN"
 "http://www.w3.org/TR/2001/REC-SVG-20010904/DTD/svg10.dtd">
<svg version="1.0" xmlns="http://www.w3.org/2000/svg"
 width="150.000000pt" height="150.000000pt" viewBox="0 0 150.000000 150.000000"
 preserveAspectRatio="xMidYMid meet">
<metadata>
Created by potrace 1.11, written by Peter Selinger 2001-2013
</metadata>
<g transform="translate(0.000000,150.000000) scale(0.100000,-0.100000)"
fill="#000000" stroke="none">
<path d="M1129 1263 c0 -15 -2 -35 -4 -43 -2 -8 -6 -28 -9 -43 -10 -54 -85
-254 -105 -282 -4 -5 -18 -36 -31 -67 -12 -32 -26 -58 -30 -58 -4 0 -13 26
-20 58 -10 48 -18 61 -47 80 -31 20 -47 22 -128 21 l-92 -1 -26 -54 c-15 -30
-27 -61 -27 -68 0 -7 -6 -19 -14 -25 -17 -14 -36 30 -60 139 -18 82 -18 85
-37 212 -12 85 -13 87 -51 108 -28 16 -46 20 -66 14 -15 -4 -32 -8 -39 -10 -6
-1 -53 -14 -105 -29 -51 -14 -112 -31 -136 -38 l-42 -11 6 -41 c8 -57 15 -105
19 -124 1 -9 6 -41 10 -71 10 -80 12 -93 45 -290 12 -69 24 -143 26 -164 3
-22 7 -43 9 -46 2 -4 7 -29 11 -56 3 -27 9 -53 13 -59 4 -5 8 -23 9 -39 1 -16
7 -46 12 -67 l11 -39 112 -1 c200 -2 199 -2 257 30 39 21 63 43 78 70 13 22
27 43 32 46 4 3 20 -30 35 -74 l26 -78 77 2 c166 5 188 11 263 71 50 41 69 64
74 87 9 43 90 266 120 332 14 29 35 81 48 116 13 35 36 89 50 120 14 31 23 60
19 63 -7 8 -8 15 -24 134 l-11 94 -51 23 c-28 12 -76 34 -106 47 -93 43 -100
44 -101 11z"/>
</g>
</svg>
