<svg width="42" height="48" viewBox="0 0 42 48" fill="none" xmlns="http://www.w3.org/2000/svg">
<path d="M27.864 22.8C27.864 24.264 26.784 25.464 25.416 25.464C24.072 25.464 22.968 24.264 22.968 22.8C22.968 21.336 24.048 20.136 25.416 20.136C26.784 20.136 27.864 21.336 27.864 22.8ZM16.656 20.136C15.288 20.136 14.208 21.336 14.208 22.8C14.208 24.264 15.312 25.464 16.656 25.464C18.024 25.464 19.104 24.264 19.104 22.8C19.128 21.336 18.024 20.136 16.656 20.136ZM42 4.944V48C35.9537 42.6568 37.8874 44.4255 30.864 37.896L32.136 42.336H4.92C2.208 42.336 0 40.128 0 37.392V4.944C0 2.208 2.208 0 4.92 0H37.08C39.792 0 42 2.208 42 4.944ZM35.16 27.696C35.16 19.968 31.704 13.704 31.704 13.704C28.248 11.112 24.96 11.184 24.96 11.184L24.624 11.568C28.704 12.816 30.6 14.616 30.6 14.616C24.899 11.4914 18.2021 11.4908 12.672 13.92C11.784 14.328 11.256 14.616 11.256 14.616C11.256 14.616 13.248 12.72 17.568 11.472L17.328 11.184C17.328 11.184 14.04 11.112 10.584 13.704C10.584 13.704 7.128 19.968 7.128 27.696C7.128 27.696 9.144 31.176 14.448 31.344C14.448 31.344 15.336 30.264 16.056 29.352C13.008 28.44 11.856 26.52 11.856 26.52C12.2091 26.7671 12.7913 27.0875 12.84 27.12C16.8909 29.3886 22.6451 30.1318 27.816 27.96C28.656 27.648 29.592 27.192 30.576 26.544C30.576 26.544 29.376 28.512 26.232 29.4C26.952 30.312 27.816 31.344 27.816 31.344C33.12 31.176 35.16 27.696 35.16 27.696Z" fill="url(#paint0_linear)"/>
<defs>
<linearGradient id="paint0_linear" x1="21" y1="0" x2="21" y2="48" gradientUnits="userSpaceOnUse">
<stop stop-color="#C3A758"/>
<stop offset="1" stop-color="#6B521E"/>
</linearGradient>
</defs>
</svg>
