<svg width="49" height="49" viewBox="0 0 49 49" fill="none" xmlns="http://www.w3.org/2000/svg">
<path d="M23.3793 33.1917C23.6091 32.0146 22.2305 30.3206 20.2774 28.531C18.2765 26.6935 15.6628 24.789 14.2076 24.0712C12.1301 22.9228 10.2153 23.899 9.77489 26.2437C9.2962 28.7511 9.77489 31.1628 11.1631 33.3161C12.1396 34.7995 13.5949 35.4886 15.3181 35.613C16.4287 35.6704 20.3444 35.8236 21.2252 35.5173C22.3645 35.1058 23.1496 34.388 23.3793 33.1917ZM43.0057 35.1824C42.9429 35.1302 42.8684 35.0943 42.7885 35.0776C42.7086 35.0609 42.6259 35.064 42.5475 35.0867C42.4691 35.1093 42.3975 35.1508 42.3388 35.2076C42.2802 35.2643 42.2363 35.3345 42.2111 35.412C41.4452 37.8429 37.9316 46.1786 25.7345 47.04C11.4024 48.0449 33.4223 51.2126 39.6549 46.4275C41.8281 44.7622 44.212 43.0779 44.1163 38.2544C44.078 37.2878 43.6472 35.7001 43.0057 35.1824ZM48.9415 23.4683C48.9128 21.6595 48.1181 20.2718 46.4523 19.4296C46.1746 19.3052 45.9736 19.1712 45.8874 18.8171C45.3084 15.5727 43.9845 12.5067 42.0196 9.86026C41.9143 9.7167 41.6845 9.55401 41.809 9.38174C42.6228 8.28116 41.7803 7.65909 41.1388 7.04659C34.2265 0.365867 26.1749 -1.56447 16.984 1.25559C13.1449 2.43274 9.90893 4.66262 7.21868 7.70598C6.83572 8.1175 6.57723 8.57688 6.93146 9.09368C7.21868 9.47649 7.05592 9.68704 6.83572 9.98372C4.9401 12.6356 3.65721 15.5632 3.0732 18.7607C3.00619 19.1722 2.79556 19.3349 2.46048 19.5071C1.10099 20.1771 0.306363 21.2776 0.0765907 22.761L0 25.2962V27.2964C0 30.2441 2.01051 32.1199 4.95925 31.9859C5.69644 31.9572 6.07939 31.5743 6.10811 30.8853C6.29959 23.4683 5.87834 21.7552 6.46234 18.8458C8.81751 6.93078 22.4315 0.481349 33.0585 6.26086C39.3868 9.76455 42.6706 15.2196 42.8525 22.473C42.9291 25.1718 42.8525 27.8802 42.8525 30.5695C42.8525 31.2394 43.0631 31.7658 43.7525 31.9284C46.0598 32.407 48.4628 30.78 48.8457 28.4161C49.1234 26.7796 48.9415 25.1144 48.9415 23.4683ZM33.6616 36.0533C37.1561 36.3212 39.3389 33.3257 39.2528 30.2632C39.0517 25.9374 32.9149 28.6841 30.8469 29.4976C23.8389 32.1868 26.5387 34.7517 28.7215 35.3163L33.6616 36.0533Z" fill="url(#paint0_linear)"/>
<defs>
<linearGradient id="paint0_linear" x1="24.5" y1="0" x2="24.5" y2="49" gradientUnits="userSpaceOnUse">
<stop stop-color="#C3A758"/>
<stop offset="1" stop-color="#6B521E"/>
</linearGradient>
</defs>
</svg>
