<svg width="48" height="48" viewBox="0 0 48 48" fill="none" xmlns="http://www.w3.org/2000/svg">
<path d="M42.8571 0H5.14286C2.30357 0 0 2.30357 0 5.14286V42.8571C0 45.6964 2.30357 48 5.14286 48H42.8571C45.6964 48 48 45.6964 48 42.8571V5.14286C48 2.30357 45.6964 0 42.8571 0ZM37.6179 17.0143C37.6393 17.3143 37.6393 17.625 37.6393 17.925C37.6393 27.2143 30.5679 37.9179 17.6464 37.9179C13.6607 37.9179 9.96429 36.7607 6.85714 34.7679C7.425 34.8321 7.97143 34.8536 8.55 34.8536C11.8393 34.8536 14.8607 33.7393 17.2714 31.8536C14.1857 31.7893 11.5929 29.7643 10.7036 26.9786C11.7857 27.1393 12.7607 27.1393 13.875 26.85C10.6607 26.1964 8.25 23.3679 8.25 19.95V19.8643C9.18214 20.3893 10.275 20.7107 11.4214 20.7536C10.4576 20.1125 9.66748 19.2427 9.12158 18.222C8.57567 17.2012 8.29096 16.0611 8.29286 14.9036C8.29286 13.5964 8.63571 12.3964 9.24643 11.3571C12.7071 15.6214 17.9036 18.4071 23.7321 18.7071C22.7357 13.9393 26.3036 10.0714 30.5893 10.0714C32.6143 10.0714 34.4357 10.9179 35.7214 12.2893C37.3071 11.9893 38.8286 11.4 40.1786 10.5964C39.6536 12.225 38.55 13.5964 37.0929 14.4643C38.5071 14.3143 39.8786 13.9179 41.1429 13.3714C40.1893 14.775 38.9893 16.0179 37.6179 17.0143Z" fill="url(#paint0_linear)"/>
<defs>
<linearGradient id="paint0_linear" x1="24" y1="0" x2="24" y2="48" gradientUnits="userSpaceOnUse">
<stop stop-color="#C3A758"/>
<stop offset="1" stop-color="#6B521E"/>
</linearGradient>
</defs>
</svg>
