<svg width="48" height="48" viewBox="0 0 48 48" fill="none" xmlns="http://www.w3.org/2000/svg">
<path d="M20.0143 18.225L30.2143 24.0214L20.0143 29.8179V18.225ZM48 5.14286V42.8571C48 45.6964 45.6964 48 42.8571 48H5.14286C2.30357 48 0 45.6964 0 42.8571V5.14286C0 2.30357 2.30357 0 5.14286 0H42.8571C45.6964 0 48 2.30357 48 5.14286ZM43.5 24.0321C43.5 24.0321 43.5 17.6464 42.6857 14.5821C42.2357 12.8893 40.9179 11.5607 39.2357 11.1107C36.2036 10.2857 24 10.2857 24 10.2857C24 10.2857 11.7964 10.2857 8.76429 11.1107C7.08214 11.5607 5.76429 12.8893 5.31429 14.5821C4.5 17.6357 4.5 24.0321 4.5 24.0321C4.5 24.0321 4.5 30.4179 5.31429 33.4821C5.76429 35.175 7.08214 36.45 8.76429 36.9C11.7964 37.7143 24 37.7143 24 37.7143C24 37.7143 36.2036 37.7143 39.2357 36.8893C40.9179 36.4393 42.2357 35.1643 42.6857 33.4714C43.5 30.4179 43.5 24.0321 43.5 24.0321Z" fill="url(#paint0_linear)"/>
<defs>
<linearGradient id="paint0_linear" x1="24" y1="0" x2="24" y2="48" gradientUnits="userSpaceOnUse">
<stop stop-color="#C3A758"/>
<stop offset="1" stop-color="#6B521E"/>
</linearGradient>
</defs>
</svg>
