<?xml version="1.0" encoding="iso-8859-1"?>
<!-- Generator: Adobe Illustrator 19.0.0, SVG Export Plug-In . SVG Version: 6.00 Build 0)  -->
<svg fill="#e9d8fd" version="1.1" id="Capa_1" xmlns="http://www.w3.org/2000/svg" xmlns:xlink="http://www.w3.org/1999/xlink" x="0px" y="0px"
	 viewBox="0 0 48.53 48.53" xml:space="preserve">
<g>
	<g>
		<path d="M9.78,21.544c0-0.091-0.001-0.179-0.012-0.269c-0.012-0.106-0.035-0.211-0.072-0.311
			c-0.104-0.275-0.298-0.449-0.583-0.521c-0.102-0.027-0.205-0.041-0.309-0.041c-0.521,0-1.04,0-1.56,0
			c-0.039,0-0.078,0.002-0.116,0.01c-0.173,0.029-0.327,0.101-0.471,0.199c-0.075,0.052-0.132,0.119-0.176,0.197
			c-0.046,0.084-0.082,0.172-0.106,0.264c-0.041,0.152-0.057,0.309-0.057,0.465c0,0.757,0,1.515,0,2.275c0,0.789,0,1.578,0,2.369
			c0,0.02,0,0.045,0,0.067c0.002,0.018,0.008,0.024,0.029,0.026c0.017,0,0.033,0,0.049,0c0.299,0,0.598,0,0.899,0
			c0.013,0,0.026,0,0.04,0c0.027-0.002,0.032-0.006,0.034-0.03c0.001-0.023,0-0.041,0-0.062c0-0.471,0-0.938,0-1.41
			c0-0.02,0-0.041,0.001-0.061c0.001-0.027,0.007-0.033,0.031-0.035c0.021,0,0.041,0,0.061,0c0.391,0,0.781,0,1.171,0
			c0.079,0,0.159,0,0.238-0.008c0.133-0.012,0.259-0.049,0.375-0.113c0.093-0.051,0.175-0.121,0.25-0.197
			c0.189-0.187,0.286-0.413,0.285-0.683C9.778,22.964,9.78,22.255,9.78,21.544z M8.726,22.539c0,0.256,0,0.512,0,0.77
			c0,0.043-0.002,0.088-0.025,0.125c-0.057,0.092-0.133,0.158-0.251,0.158c-0.25,0-0.5,0-0.749,0c-0.056,0-0.109-0.01-0.16-0.031
			c-0.084-0.034-0.135-0.096-0.157-0.184c-0.011-0.041-0.015-0.084-0.015-0.127c0.001-0.191,0-0.383,0-0.572
			c0-0.281,0.001-0.565,0-0.844c0-0.047,0.003-0.092,0.014-0.137c0.024-0.103,0.087-0.172,0.191-0.201
			c0.037-0.01,0.075-0.016,0.114-0.016c0.261,0,0.522,0,0.783,0c0.026,0,0.054,0.002,0.081,0.01c0.089,0.019,0.14,0.078,0.161,0.164
			c0.011,0.039,0.014,0.08,0.014,0.121C8.726,22.029,8.726,22.284,8.726,22.539z"/>
	</g>
</g>
<g>
	<g>
		<path d="M20.895,28.233c0-0.046-0.006-0.087-0.017-0.126c-0.033-0.137-0.111-0.234-0.246-0.285
			c-0.074-0.027-0.151-0.043-0.232-0.043c-0.213,0-0.426,0-0.64,0c-0.066-0.004-0.13,0.006-0.193,0.023
			c-0.139,0.039-0.23,0.125-0.27,0.264c-0.025,0.088-0.035,0.18-0.035,0.275c0,0.68,0,1.356,0,2.034
			c0,0.027,0.004,0.056-0.004,0.082c0.167,0,0.335,0,0.504,0c0-0.215,0-0.428,0-0.642c0-0.02,0-0.041,0.001-0.061
			c0.001-0.012,0.008-0.021,0.021-0.023c0.018,0,0.037,0,0.055,0c0.192,0,0.386,0,0.579,0c0.021,0,0.041,0,0.062-0.002
			c0.235-0.032,0.438-0.256,0.417-0.477c0-0.289,0-0.576,0-0.865C20.897,28.338,20.896,28.285,20.895,28.233z M20.401,28.745
			c0,0.113-0.001,0.227,0,0.34c0,0.025-0.002,0.051-0.013,0.074c-0.02,0.043-0.053,0.07-0.104,0.07c-0.127,0-0.253,0-0.381,0
			c-0.021,0-0.04-0.004-0.061-0.012c-0.032-0.011-0.055-0.037-0.067-0.07c-0.009-0.021-0.013-0.049-0.013-0.072
			c0.001-0.213,0.001-0.428,0-0.641c0-0.029,0.008-0.06,0.02-0.086c0.025-0.051,0.064-0.078,0.124-0.076
			c0.123,0.004,0.245,0,0.367,0c0.008,0,0.017,0,0.027,0c0.057,0.01,0.091,0.041,0.099,0.1c0.003,0.018,0.002,0.035,0.002,0.055
			C20.401,28.533,20.401,28.64,20.401,28.745z"/>
	</g>
</g>
<g>
	<g>
		<path d="M4.414,20.019C4.4,19.89,4.378,19.763,4.343,19.64c-0.204-0.725-0.778-1.293-1.504-1.488
			c-0.117-0.031-0.234-0.053-0.354-0.066c-0.012,0-0.027,0.004-0.034-0.014c-0.087,0-0.172,0-0.259,0c-0.045,0-0.091,0-0.137,0
			c0,0.006,0.001,0.01,0.001,0.014c-0.067,0.012-0.136,0.02-0.202,0.033c-0.503,0.104-0.918,0.355-1.242,0.754
			c-0.24,0.293-0.391,0.631-0.453,1.006c-0.021,0.133-0.025,0.266-0.033,0.4c-0.002,0.047,0,0.094,0.001,0.143
			c-0.001,0.01,0.01,0.017,0.019,0.01c0.007-0.004,0.014-0.01,0.021-0.016c0.094-0.072,0.193-0.135,0.303-0.182
			c0.07-0.031,0.143-0.057,0.218-0.076c0.021-0.004,0.029-0.014,0.034-0.035c0.016-0.068,0.036-0.137,0.061-0.201
			c0.243-0.652,0.89-1.082,1.599-1.035c0.222,0.014,0.432,0.068,0.626,0.172c0.424,0.223,0.699,0.566,0.821,1.031
			c0.017,0.063,0.016,0.063,0.076,0.076c0.185,0.043,0.353,0.121,0.496,0.244c0.008,0.006,0.014,0.02,0.031,0.008
			c0.001-0.027,0.003-0.057,0.003-0.086C4.435,20.228,4.425,20.125,4.414,20.019z"/>
	</g>
</g>
<g>
	<g>
		<path d="M24.83,29.053c0-0.402,0-0.8,0-1.199c0-0.021-0.002-0.041-0.002-0.061c-0.002-0.012-0.008-0.018-0.019-0.021
			c-0.012,0-0.022,0-0.034,0c-0.127,0-0.254,0-0.381,0c-0.012,0-0.022,0-0.034,0c-0.014,0.004-0.021,0.012-0.022,0.021
			c-0.001,0.018-0.001,0.031-0.001,0.051c0,0.127,0,0.254,0,0.381c0,0.277,0,0.56,0,0.838c0,0.021,0,0.045-0.006,0.064
			c-0.015,0.061-0.064,0.1-0.131,0.104c-0.047,0.002-0.094,0-0.143,0c-0.077,0-0.154,0.002-0.231,0
			c-0.065-0.002-0.099-0.03-0.117-0.094C23.7,29.108,23.7,29.077,23.7,29.05c0.001-0.396,0.001-0.797,0-1.191
			c0-0.02,0.001-0.041-0.001-0.061c0-0.013-0.008-0.021-0.021-0.021c-0.012,0-0.023,0-0.034,0c-0.127,0-0.255,0-0.382,0
			c-0.012,0-0.022,0-0.033,0c-0.014,0.002-0.021,0.01-0.021,0.02c-0.002,0.014-0.002,0.023-0.002,0.035c0,0.479,0,0.957,0,1.438
			c0,0.031,0.002,0.063,0.009,0.096c0.02,0.107,0.084,0.191,0.163,0.268c0.052,0.047,0.112,0.076,0.181,0.088
			c0.044,0.01,0.09,0.014,0.136,0.014c0.182,0,0.363,0,0.545,0c0.114,0,0.096-0.016,0.098,0.105c0,0.002,0,0.004-0.001,0.006
			c-0.008,0.055-0.033,0.094-0.086,0.11c-0.027,0.011-0.057,0.011-0.086,0.011c-0.29,0-0.581,0-0.872,0c-0.02,0-0.04,0-0.062,0.002
			c-0.012,0-0.021,0.006-0.021,0.021c-0.001,0.01-0.002,0.019-0.002,0.026c0,0.146,0.001,0.295,0.002,0.441c0.422,0,0.844,0,1.266,0
			c0.009-0.016,0.024-0.014,0.036-0.018c0.144-0.049,0.239-0.146,0.285-0.287c0.023-0.07,0.035-0.141,0.035-0.215
			C24.83,29.643,24.83,29.348,24.83,29.053z"/>
	</g>
</g>
<g>
	<g>
		<path d="M22.85,28.097c-0.035-0.15-0.123-0.253-0.275-0.292c-0.074-0.018-0.15-0.031-0.228-0.031c-0.345,0-0.689,0-1.034,0
			c-0.014,0-0.028,0-0.041,0c-0.019,0.003-0.026,0.01-0.028,0.031c-0.001,0.012-0.001,0.027-0.001,0.041c0,0.107,0,0.217,0,0.326
			c0,0.082-0.005,0.076,0.079,0.076c0.297,0,0.594,0,0.892,0c0.019,0,0.036,0,0.055,0c0.075,0.003,0.098,0.03,0.104,0.104
			c0.005,0.072,0.007,0.072-0.067,0.07c-0.052,0-0.103,0-0.155,0c-0.14,0-0.277,0.002-0.416,0c-0.054,0-0.108,0.002-0.162,0.016
			c-0.165,0.039-0.274,0.137-0.318,0.303c-0.01,0.037-0.018,0.072-0.018,0.111c0.001,0.168-0.012,0.336,0.007,0.502
			c0.019,0.162,0.103,0.272,0.252,0.334c0.066,0.027,0.136,0.039,0.206,0.041c0.244,0,0.486,0,0.729,0
			c0.058,0,0.113-0.01,0.165-0.031c0.175-0.078,0.264-0.218,0.271-0.406c0.007-0.18,0.002-0.357,0.002-0.537
			c0-0.168-0.001-0.336,0.001-0.504C22.87,28.2,22.862,28.148,22.85,28.097z M22.368,29.151c-0.009,0.064-0.044,0.09-0.107,0.094
			c-0.027,0.002-0.054,0.002-0.081,0.002c-0.098,0-0.195,0-0.293,0c-0.02,0-0.041,0-0.061-0.006
			c-0.053-0.01-0.088-0.049-0.092-0.104c-0.001-0.055-0.001-0.108,0.002-0.162c0.002-0.053,0.027-0.078,0.08-0.084
			c0.019-0.004,0.036-0.004,0.054-0.004c0.059,0,0.118,0,0.177,0c0.066,0,0.132,0,0.197,0c0.034,0,0.062,0.011,0.09,0.027
			c0.021,0.012,0.033,0.033,0.035,0.055C22.375,29.031,22.378,29.091,22.368,29.151z"/>
	</g>
</g>
<g>
	<g>
		<path d="M28.574,20.054c0.024-0.084,0.08-0.141,0.162-0.172c0.053-0.02,0.104-0.027,0.159-0.027c0.117,0,0.231,0,0.349,0
			c0.06,0,0.062,0,0.062-0.063c0-0.309,0-0.617,0-0.926c0-0.059-0.002-0.059-0.062-0.059c-0.203-0.002-0.408-0.002-0.611,0
			c-0.065,0-0.133,0.004-0.197,0.014c-0.231,0.031-0.44,0.115-0.618,0.27c-0.138,0.121-0.232,0.268-0.279,0.443
			c-0.024,0.102-0.035,0.205-0.035,0.311c0,0.785,0,1.57,0,2.355c0,0.799,0,1.6,0,2.398c-0.002,0.081-0.006,0.079,0.074,0.079
			c0.305,0,0.604,0,0.906,0c0.014,0,0.027,0,0.041,0c0.027-0.002,0.031-0.006,0.033-0.031c0.002-0.02,0-0.037,0-0.055
			c0-0.252,0-0.506,0-0.756c0-0.76,0-1.518,0-2.275c0-0.084-0.006-0.078,0.076-0.078c0.2,0,0.403,0,0.604,0
			c0.065,0,0.065,0,0.065-0.063c0-0.318,0-0.637,0-0.953c0-0.012,0-0.023-0.002-0.035c0-0.023-0.008-0.029-0.033-0.031
			c-0.012,0-0.022,0-0.034,0c-0.142,0-0.281,0-0.423,0c-0.071,0-0.146,0-0.217,0c-0.031,0-0.037-0.006-0.037-0.035
			c-0.002-0.074-0.002-0.148,0-0.225C28.559,20.111,28.566,20.081,28.574,20.054z"/>
	</g>
</g>
<g>
	<g>
		<path d="M4.533,21.28c-0.015-0.124-0.042-0.249-0.093-0.366c-0.1-0.227-0.267-0.381-0.503-0.457
			C3.812,20.416,3.681,20.4,3.549,20.4c-0.866,0-1.731,0-2.595,0c-0.04,0-0.082,0-0.122,0.008c-0.196,0.035-0.371,0.117-0.526,0.24
			c-0.034,0.028-0.063,0.059-0.087,0.094c-0.072,0.106-0.119,0.221-0.151,0.342c-0.021,0.084-0.035,0.168-0.043,0.254
			C0.022,21.365,0.028,21.393,0,21.411c0,0.748,0,1.498,0,2.246c0.025,0.019,0.023,0.049,0.025,0.076
			c0.005,0.066,0.015,0.133,0.03,0.198c0.029,0.131,0.074,0.254,0.146,0.367c0.026,0.039,0.052,0.078,0.089,0.109
			c0.201,0.166,0.427,0.266,0.691,0.266c0.846,0.002,1.692,0.002,2.539,0.002c0.114,0,0.228-0.012,0.338-0.039
			c0.164-0.041,0.31-0.113,0.427-0.24c0.093-0.099,0.155-0.217,0.195-0.345c0.049-0.16,0.068-0.324,0.068-0.492
			c0-0.664,0-1.328,0-1.994C4.548,21.469,4.546,21.376,4.533,21.28z"/>
	</g>
</g>
<g>
	<g>
		<path d="M14.053,21.083c-0.041-0.174-0.122-0.326-0.256-0.445c-0.109-0.095-0.239-0.154-0.38-0.191
			c-0.127-0.033-0.258-0.045-0.39-0.045c-0.366,0-0.732,0-1.097,0c-0.401,0-0.803,0-1.205,0c-0.09,0-0.082-0.01-0.082,0.086
			c-0.001,0.305,0,0.607,0,0.912c0,0.014-0.001,0.027,0,0.041c0.001,0.037,0.004,0.041,0.037,0.041c0.019,0.002,0.037,0,0.056,0
			c0.669,0,1.339,0,2.008,0c0.023,0,0.046,0,0.068,0.002c0.039,0,0.076,0.007,0.113,0.021c0.055,0.021,0.093,0.06,0.112,0.119
			c0.01,0.034,0.012,0.069,0.011,0.102c-0.001,0.11,0.013,0.096-0.092,0.096c-0.426,0-0.853,0-1.28,0c-0.034,0-0.069,0-0.102,0.002
			c-0.125,0.007-0.248,0.025-0.367,0.066c-0.261,0.089-0.434,0.263-0.519,0.525c-0.043,0.135-0.061,0.271-0.063,0.41
			c-0.002,0.295-0.001,0.59,0,0.885c0.001,0.107,0.014,0.212,0.041,0.316c0.038,0.152,0.108,0.287,0.221,0.393
			c0.1,0.092,0.218,0.154,0.347,0.193c0.158,0.047,0.321,0.063,0.484,0.065c0.436,0,0.871,0,1.307,0c0.08,0,0.159,0,0.238-0.01
			c0.122-0.01,0.236-0.043,0.342-0.105c0.172-0.098,0.297-0.235,0.382-0.414c0.076-0.158,0.106-0.326,0.106-0.5
			c0.002-0.738,0.001-1.477,0.001-2.213C14.094,21.315,14.081,21.198,14.053,21.083z M13.047,23.359c0,0.027-0.003,0.055-0.011,0.08
			c-0.015,0.06-0.051,0.1-0.106,0.123c-0.048,0.023-0.1,0.031-0.152,0.031c-0.166,0-0.332,0-0.497,0c-0.109,0-0.218-0.002-0.326,0
			c-0.093,0.002-0.166-0.039-0.229-0.102c-0.027-0.026-0.043-0.059-0.043-0.098c0-0.121,0.002-0.244,0.003-0.367
			c0-0.007,0-0.015,0.002-0.021c0.02-0.106,0.041-0.15,0.163-0.168c0.031-0.006,0.062-0.008,0.094-0.008c0.136,0,0.272,0,0.407,0
			c0.136,0,0.272,0,0.409-0.002c0.038,0,0.076,0.006,0.114,0.014c0.102,0.025,0.163,0.098,0.171,0.203
			c0.002,0.034,0.001,0.069,0.002,0.102C13.048,23.216,13.048,23.286,13.047,23.359z"/>
	</g>
</g>
<g>
	<g>
		<path d="M33.317,21.015c-0.09-0.299-0.283-0.488-0.586-0.57c-0.115-0.033-0.232-0.045-0.35-0.045c-0.478,0-0.953,0-1.431,0
			c-0.041,0-0.082,0-0.122,0.004c-0.133,0.01-0.261,0.037-0.383,0.088c-0.204,0.087-0.349,0.232-0.433,0.439
			c-0.061,0.153-0.082,0.311-0.084,0.473c-0.002,0.266,0.002,0.531,0.006,0.797c0.005,0.377,0,0.757,0.01,1.137
			c0.002,0.156-0.007,0.313,0.014,0.469c0.008,0.07,0.019,0.139,0.037,0.207c0.034,0.129,0.102,0.235,0.188,0.336
			c0.131,0.149,0.293,0.248,0.487,0.291c0.134,0.029,0.268,0.035,0.406,0.037c0.356,0,0.717,0,1.075,0c0.382,0,0.763,0,1.144,0
			c0.084,0,0.078,0,0.078-0.078c0-0.309,0-0.617,0-0.926c0-0.092,0.011-0.082-0.084-0.082c-0.672,0-1.346,0-2.017,0
			c-0.021,0-0.041,0-0.062,0c-0.049,0-0.088-0.022-0.115-0.061c-0.014-0.016-0.022-0.033-0.035-0.049
			c-0.055-0.072-0.061-0.156-0.055-0.24c0-0.011,0.006-0.017,0.014-0.021c0.01-0.006,0.019-0.01,0.031-0.014
			c0.33-0.131,0.662-0.262,0.992-0.393c0.427-0.166,0.851-0.334,1.279-0.502c0.014-0.006,0.025-0.01,0.037-0.016
			c0.01-0.003,0.016-0.011,0.016-0.021c0.002-0.012,0.002-0.023,0.002-0.033c0-0.277,0-0.555,0-0.832
			C33.376,21.277,33.356,21.144,33.317,21.015z M32.271,21.703c-0.053,0.02-0.104,0.041-0.157,0.061
			c-0.347,0.131-0.69,0.262-1.037,0.391c-0.022,0.009-0.047,0.015-0.071,0.023c-0.011,0.002-0.019-0.006-0.019-0.016
			c-0.002-0.016-0.004-0.031-0.004-0.047c0-0.06,0-0.12,0-0.178c0-0.061,0.002-0.123,0-0.184c0-0.062,0.022-0.113,0.067-0.158
			c0.076-0.078,0.168-0.117,0.279-0.115c0.238,0.002,0.479,0,0.715,0c0.058,0,0.113,0.01,0.162,0.039
			c0.057,0.032,0.09,0.077,0.092,0.143C32.298,21.682,32.292,21.695,32.271,21.703z"/>
	</g>
</g>
<g>
	<g>
		<path d="M20.373,21.521c0.027-0.012,0.056-0.021,0.084-0.027c0.049-0.01,0.099-0.012,0.149-0.012c0.585,0,1.171,0,1.757,0
			c0.077,0,0.073,0.006,0.073-0.074c0-0.309,0-0.617,0-0.926c0-0.086,0.006-0.08-0.082-0.08c-0.366,0-0.731,0-1.096,0
			c-0.325,0-0.649,0-0.974,0c-0.044,0-0.087,0-0.131,0.002c-0.136,0.008-0.27,0.033-0.396,0.084
			c-0.225,0.088-0.379,0.244-0.459,0.473c-0.041,0.117-0.063,0.238-0.063,0.359c-0.004,0.285-0.004,0.568-0.001,0.852
			c0.002,0.162,0.053,0.312,0.146,0.447c0.05,0.07,0.113,0.129,0.177,0.188c0.196,0.174,0.426,0.264,0.688,0.27
			c0.029,0,0.059,0,0.088,0c0.274,0,0.549,0.002,0.824,0c0.068-0.002,0.116,0.025,0.154,0.08c0.066,0.096,0.054,0.197,0.036,0.303
			c-0.001,0.002-0.002,0.004-0.002,0.006c-0.021,0.053-0.061,0.084-0.112,0.104c-0.053,0.02-0.108,0.025-0.166,0.025
			c-0.593,0-1.185,0-1.777,0c-0.074,0-0.071-0.006-0.071,0.068c0,0.316,0,0.631,0,0.946c0,0.072-0.005,0.07,0.069,0.07
			c0.712-0.002,1.421-0.002,2.132-0.002c0.096,0,0.19-0.008,0.284-0.022c0.099-0.019,0.188-0.054,0.267-0.115
			c0.188-0.146,0.33-0.328,0.416-0.553c0.032-0.082,0.049-0.17,0.049-0.26c-0.001-0.266,0-0.531,0-0.797
			c0-0.068-0.008-0.135-0.023-0.201c-0.056-0.238-0.189-0.426-0.383-0.57c-0.154-0.119-0.334-0.17-0.527-0.172
			c-0.295,0-0.59,0-0.886,0c-0.036,0-0.072,0-0.108-0.002c-0.046-0.004-0.09-0.016-0.131-0.033c-0.068-0.031-0.106-0.086-0.109-0.16
			c-0.001-0.039-0.002-0.078,0-0.117C20.273,21.605,20.307,21.552,20.373,21.521z"/>
	</g>
</g>
<g>
	<g>
		<path d="M18.307,20.4c-0.289,0-0.577,0-0.865,0c-0.104,0-0.092-0.012-0.092,0.09c0,0.924,0,1.848,0,2.771c0,0.021,0,0.041,0,0.061
			c-0.002,0.047-0.015,0.092-0.045,0.127c-0.067,0.086-0.153,0.141-0.267,0.143c-0.257,0-0.513,0-0.77,0
			c-0.135-0.002-0.22-0.074-0.253-0.205c-0.014-0.055-0.014-0.111-0.014-0.168c0-0.914,0-1.826,0-2.738
			c0-0.086,0.007-0.08-0.082-0.08c-0.298,0-0.594,0-0.893,0c-0.092,0-0.083-0.008-0.083,0.084c0,0.629,0,1.258,0,1.887
			c0,0.393,0,0.785,0,1.178c0,0.113,0.006,0.223,0.03,0.332c0.036,0.164,0.109,0.313,0.217,0.441
			c0.137,0.162,0.304,0.279,0.515,0.324c0.1,0.023,0.201,0.031,0.304,0.031c0.416,0,0.831,0,1.247,0c0.02,0,0.04,0,0.061,0
			c0.024,0.002,0.031,0.008,0.031,0.035c0.001,0.071,0.002,0.145,0,0.217c-0.001,0.058-0.022,0.104-0.061,0.146
			c-0.054,0.061-0.119,0.1-0.198,0.109c-0.036,0.006-0.072,0.008-0.108,0.008c-0.654,0-1.309,0-1.961,0
			c-0.082,0-0.076-0.004-0.076,0.078c0,0.309,0,0.617,0,0.928c0,0.012-0.001,0.025,0,0.039c0,0.027,0.006,0.033,0.03,0.035
			c0.019,0,0.037,0,0.056,0c0.775,0,1.552,0,2.329,0c0.07,0,0.14-0.002,0.21-0.014c0.182-0.027,0.343-0.101,0.478-0.228
			c0.141-0.134,0.229-0.297,0.284-0.479c0.048-0.158,0.063-0.32,0.063-0.484c0.001-0.76,0-1.521,0-2.281c0-0.768,0-1.535,0-2.301
			C18.395,20.39,18.404,20.4,18.307,20.4z"/>
	</g>
</g>
<g>
	<g>
		<path d="M48.084,29.111c-0.197,0.002-0.316,0.174-0.307,0.307c-0.006,0.166,0.125,0.312,0.311,0.313
			c0.18,0.002,0.311-0.153,0.309-0.313C48.395,29.268,48.271,29.111,48.084,29.111z"/>
	</g>
</g>
<g>
	<g>
		<path d="M42.507,28.621c-0.07-0.074-0.158-0.111-0.262-0.111c-0.139,0-0.271,0-0.41,0c-0.029,0-0.062-0.004-0.094-0.012
			c-0.014-0.004-0.025-0.01-0.035-0.02c-0.031-0.025-0.049-0.086-0.031-0.125c0.02-0.041,0.049-0.07,0.098-0.074
			c0.011-0.005,0.028-0.005,0.048-0.005c0.252,0,0.504,0,0.756,0c0.019,0,0.035,0,0.056,0c0.021-0.002,0.026-0.008,0.026-0.028
			c0-0.039,0-0.078-0.002-0.116c0-0.107,0-0.214,0-0.32c0-0.025-0.006-0.031-0.031-0.031c-0.016,0-0.03,0-0.047,0
			c-0.303,0-0.604,0-0.905,0c-0.05,0-0.097,0.004-0.144,0.012c-0.24,0.043-0.349,0.223-0.354,0.412c-0.004,0.135,0,0.268,0,0.4
			c-0.002,0.065,0.017,0.135,0.06,0.186c0.103,0.129,0.229,0.213,0.397,0.215c0.125,0,0.25,0,0.375,0c0.016,0,0.031-0.002,0.047,0
			c0.051,0.006,0.084,0.041,0.09,0.09c0.002,0.016,0.002,0.031,0,0.047c-0.004,0.058-0.032,0.086-0.088,0.094
			c-0.021,0.003-0.041,0.003-0.062,0.003c-0.248,0-0.496,0-0.742,0c-0.02,0-0.035,0-0.055,0c-0.031,0.002-0.037,0.006-0.037,0.036
			c0,0.142,0,0.281,0,0.423c0,0.036,0.006,0.038,0.041,0.041c0.016,0,0.031,0,0.047,0c0.156,0,0.312,0,0.471,0
			c0.033,0,0.066,0,0.103,0c0.131,0,0.26,0,0.389,0c0.08-0.003,0.16-0.013,0.228-0.062c0.127-0.094,0.207-0.215,0.211-0.379
			c0.002-0.1,0.002-0.199,0.01-0.299C42.671,28.848,42.61,28.723,42.507,28.621z"/>
	</g>
</g>
<g>
	<g>
		<path d="M44.309,20.236l-0.133-0.016c-0.141-0.02-0.279-0.005-0.414,0.005c-0.123,0.007-0.231,0.023-0.33,0.051
			c-0.217,0.056-0.396,0.159-0.532,0.309c-0.121,0.135-0.203,0.292-0.253,0.48c-0.038,0.154-0.059,0.319-0.059,0.503v3.029
			l0.035,0.23h0.318c0.033,0,0.101,0,0.15-0.053c0.06-0.05,0.06-0.115,0.06-0.18V21.6c0-0.075,0-0.15,0.01-0.226
			c0.013-0.1,0.033-0.182,0.065-0.255c0.045-0.105,0.113-0.186,0.207-0.242c0.058-0.032,0.113-0.056,0.174-0.07
			c0.078-0.021,0.164-0.031,0.273-0.033l0.074-0.001l0.158,0.001c0.021,0,0.045-0.001,0.072-0.004l0.146-0.043V20.39L44.309,20.236z
			"/>
	</g>
</g>
<g>
	<g>
		<path d="M41.651,21.596c0-0.074-0.003-0.149-0.011-0.22c-0.02-0.175-0.067-0.342-0.143-0.498c-0.08-0.168-0.178-0.302-0.293-0.409
			c-0.123-0.116-0.27-0.189-0.434-0.215c-0.16-0.026-0.336-0.039-0.531-0.039c-0.697-0.002-1.395-0.002-2.092-0.002l-0.064,0.002
			c-0.141,0.018-0.166,0.123-0.168,0.188v0.188c0.006,0.104,0.068,0.17,0.168,0.178c0.025,0.002,0.051,0.003,0.076,0.003
			l1.479-0.001l0.734,0.001c0.096,0,0.187,0.009,0.289,0.03c0.067,0.012,0.121,0.041,0.178,0.091
			c0.08,0.069,0.144,0.159,0.195,0.274c0.043,0.099,0.064,0.213,0.066,0.35c0.002,0.044,0.002,0.088,0.002,0.132h-1.898
			c-0.047,0-0.094,0.002-0.143,0.005c-0.16,0.006-0.312,0.037-0.453,0.092c-0.232,0.089-0.41,0.24-0.527,0.448
			c-0.065,0.109-0.108,0.225-0.133,0.353c-0.027,0.129-0.043,0.267-0.043,0.411v0.52c0,0.093,0.002,0.186,0.012,0.283
			c0.02,0.138,0.047,0.248,0.09,0.349c0.127,0.297,0.353,0.509,0.666,0.63c0.154,0.059,0.322,0.086,0.516,0.086h1.253
			c0.09,0,0.18-0.006,0.266-0.025c0.343-0.067,0.604-0.249,0.785-0.541c0.069-0.115,0.112-0.228,0.129-0.345
			c0.018-0.147,0.029-0.29,0.029-0.426l-0.003-1.262L41.651,21.596z M41.094,23.609c0,0.119-0.019,0.225-0.058,0.326
			c-0.054,0.136-0.145,0.228-0.283,0.28c-0.092,0.035-0.193,0.053-0.309,0.053c-0.236,0.002-0.472,0.002-0.707,0.002H39.36h-0.188
			c-0.193,0-0.365-0.063-0.523-0.194c-0.047-0.039-0.081-0.071-0.102-0.105c-0.022-0.029-0.035-0.062-0.045-0.096
			c-0.021-0.088-0.035-0.169-0.035-0.244c-0.002-0.253-0.002-0.507,0-0.76c0-0.093,0.019-0.184,0.051-0.269
			c0.076-0.205,0.22-0.329,0.439-0.377c0.07-0.016,0.143-0.023,0.223-0.023c0.642,0,1.277,0,1.914,0.001V23.609z"/>
	</g>
</g>
<g>
	<g>
		<path d="M44.576,28.062c-0.039-0.127-0.121-0.213-0.25-0.247c-0.078-0.021-0.16-0.035-0.242-0.035c-0.17,0-0.34,0-0.51,0
			c-0.172,0-0.348,0-0.522,0c-0.021,0-0.037,0-0.056,0c-0.011,0-0.021,0.006-0.021,0.021c-0.002,0.01-0.002,0.022-0.002,0.032
			c0,0.121,0,0.24,0,0.36c0,0.012,0,0.021,0.002,0.033c0,0.013,0.009,0.021,0.021,0.023c0.021,0,0.041,0,0.062,0
			c0.267,0,0.531,0,0.797,0c0.043,0,0.087,0,0.13,0c0.024,0,0.05,0.006,0.071,0.014c0.027,0.01,0.045,0.031,0.047,0.062
			c0,0.024,0,0.049,0,0.073c0,0.015-0.005,0.027-0.022,0.027c-0.019,0-0.034,0-0.055,0c-0.187,0-0.373,0-0.558,0
			c-0.054,0-0.104,0.002-0.158,0.014c-0.178,0.041-0.291,0.146-0.33,0.33c-0.008,0.037-0.01,0.076-0.01,0.113
			c-0.002,0.119-0.002,0.234,0,0.348c0,0.038,0,0.071,0.004,0.103c0.009,0.183,0.122,0.33,0.31,0.377
			c0.061,0.014,0.126,0.022,0.188,0.022c0.225,0,0.449,0,0.674,0c0.012,0,0.02,0,0.033,0c0.192-0.016,0.327-0.11,0.395-0.289
			c0.021-0.057,0.031-0.118,0.031-0.18c-0.002-0.336-0.002-0.672,0-1.008C44.605,28.189,44.597,28.124,44.576,28.062z
			 M44.105,29.143c0,0.053-0.049,0.106-0.104,0.104c-0.051-0.002-0.103,0.002-0.154,0.002c-0.02,0-0.037,0-0.057,0
			c-0.055,0-0.107,0-0.164,0c-0.014,0-0.029,0-0.047-0.002c-0.064-0.007-0.107-0.049-0.113-0.111c-0.002-0.051,0-0.098,0-0.145
			c0.002-0.014,0.006-0.027,0.01-0.041c0.009-0.026,0.027-0.043,0.052-0.051c0.016-0.006,0.034-0.01,0.053-0.01
			c0.135,0,0.27,0,0.406,0c0.03,0,0.057,0.009,0.082,0.026c0.024,0.015,0.036,0.034,0.036,0.062
			C44.104,29.031,44.104,29.085,44.105,29.143z"/>
	</g>
</g>
<g>
	<g>
		<path d="M40.361,28.934c-0.001-0.362-0.001-0.723-0.001-1.08c0-0.021,0-0.041-0.003-0.061c0-0.01-0.008-0.018-0.018-0.021
			c-0.014,0-0.022,0-0.033,0c-0.129,0-0.256,0-0.383,0c-0.012,0-0.021,0-0.033,0c-0.014,0.004-0.021,0.012-0.021,0.021
			c-0.002,0.021-0.002,0.041-0.002,0.062c0,0.255,0,0.507,0,0.759c0,0.149,0,0.303,0,0.455c0,0.021,0,0.041-0.006,0.062
			c-0.018,0.061-0.064,0.098-0.133,0.102c-0.051,0.002-0.104,0-0.154,0c-0.072,0-0.146,0.002-0.219,0
			c-0.068-0.002-0.104-0.035-0.117-0.102c-0.008-0.035-0.01-0.072-0.01-0.107c0-0.389,0-0.777,0-1.166c0-0.02,0-0.039,0-0.061
			c-0.002-0.013-0.01-0.021-0.021-0.021c-0.012,0-0.021,0-0.033,0c-0.127,0-0.256,0-0.381,0c-0.014,0-0.023,0-0.035,0
			c-0.014,0.002-0.02,0.012-0.021,0.023c0,0.02,0,0.041,0,0.061c0,0.268,0,0.535,0,0.805c0,0.201,0.002,0.402,0,0.605
			c-0.002,0.152,0.065,0.27,0.178,0.367c0.056,0.047,0.117,0.073,0.188,0.086c0.043,0.006,0.086,0.01,0.129,0.01
			c0.179,0,0.357,0,0.537,0c0.117,0,0.099-0.018,0.099,0.111c0,0.002,0,0.004,0,0.006c-0.015,0.051-0.037,0.088-0.088,0.104
			c-0.03,0.012-0.06,0.012-0.088,0.012c-0.289,0-0.58,0-0.871,0c-0.021,0-0.041,0-0.062,0.002c-0.014,0-0.021,0.006-0.021,0.021
			c-0.002,0.01-0.002,0.019-0.002,0.026c0,0.146,0,0.295,0,0.441c0.424,0,0.846,0,1.268,0c0.012-0.018,0.031-0.018,0.049-0.021
			c0.137-0.047,0.226-0.142,0.271-0.275c0.024-0.074,0.039-0.152,0.039-0.234C40.361,29.596,40.361,29.264,40.361,28.934z"/>
	</g>
</g>
<g>
	<g>
		<path d="M45.753,27.05c-0.116-0.001-0.232-0.004-0.344,0.002c-0.106,0.006-0.209,0.041-0.297,0.107
			c-0.08,0.061-0.134,0.143-0.156,0.236c-0.012,0.041-0.01,0.082-0.01,0.123c0,0.35,0,0.697,0,1.051c0,0.357,0,0.721,0,1.082
			c0,0.02,0,0.041,0.002,0.061c0.002,0.01,0.008,0.016,0.019,0.018c0.02,0.002,0.034,0.002,0.055,0.002c0.106,0,0.219,0,0.326,0
			c0.104,0,0.092,0.013,0.092-0.09c0-0.426,0-0.854,0-1.278c0-0.022,0.002-0.048,0.003-0.067c0.001-0.011,0.009-0.017,0.019-0.019
			c0.018-0.003,0.031-0.003,0.049-0.003c0.066,0,0.137,0,0.203,0c0.016,0,0.031,0,0.049,0c0.021-0.002,0.025-0.01,0.027-0.028
			c0.002-0.006,0.002-0.01,0.002-0.015c0-0.139,0-0.276,0-0.416c0-0.034-0.008-0.041-0.047-0.041c-0.068,0-0.137,0-0.205,0
			c-0.113-0.002-0.098,0.017-0.098-0.104c-0.002-0.008,0-0.018,0.002-0.027c0.01-0.047,0.035-0.082,0.08-0.102
			c0.029-0.01,0.059-0.016,0.088-0.016c0.033,0,0.068,0,0.102,0c0.018,0,0.033,0,0.049,0c0.019-0.004,0.025-0.012,0.025-0.025
			c0.004-0.012,0.004-0.023,0.004-0.033c0-0.121,0-0.242,0-0.361c0-0.008,0-0.014,0-0.02C45.788,27.056,45.784,27.05,45.753,27.05z"
			/>
	</g>
</g>
<g>
	<g>
		<path d="M48.338,18.823h-0.171c-0.127,0-0.196,0.07-0.194,0.187l-0.002,1.212h-1.855c-0.2,0-0.364,0.02-0.512,0.064
			c-0.205,0.06-0.379,0.16-0.516,0.301c-0.125,0.13-0.214,0.287-0.271,0.477c-0.051,0.166-0.076,0.348-0.076,0.539v1.906
			c0,0.148,0.02,0.295,0.057,0.448c0.078,0.324,0.275,0.571,0.578,0.734c0.078,0.045,0.162,0.072,0.258,0.091
			c0.144,0.026,0.293,0.041,0.439,0.045h0.316h0.637c0.102,0,0.201-0.002,0.305-0.011c0.164-0.014,0.297-0.04,0.416-0.086
			c0.33-0.118,0.561-0.345,0.68-0.673c0.07-0.181,0.103-0.385,0.103-0.604V19.01C48.526,18.892,48.457,18.823,48.338,18.823z
			 M47.975,23.448c0,0.111-0.014,0.21-0.039,0.304c-0.024,0.093-0.063,0.17-0.114,0.232c-0.018,0.024-0.043,0.046-0.065,0.066
			c-0.123,0.099-0.269,0.164-0.451,0.197c-0.095,0.015-0.202,0.023-0.312,0.023h-0.871c-0.146,0-0.291-0.022-0.433-0.068
			c-0.045-0.016-0.09-0.036-0.129-0.055c-0.104-0.051-0.172-0.128-0.215-0.244c-0.022-0.067-0.039-0.142-0.043-0.23
			c-0.002-0.029-0.002-0.057-0.002-0.112V21.5c0-0.085,0.017-0.174,0.049-0.271c0.021-0.055,0.054-0.11,0.097-0.164
			c0.043-0.05,0.088-0.099,0.139-0.143c0.059-0.052,0.125-0.084,0.201-0.104c0.074-0.019,0.153-0.032,0.237-0.038
			c0.093-0.005,0.185-0.005,0.281-0.005c0.004,0,0.006,0,0.01,0h1.66V23.448z"/>
	</g>
</g>
<g>
	<g>
		<path d="M47.135,28.802c0.125-0.05,0.25-0.097,0.375-0.142c0.028-0.013,0.039-0.029,0.039-0.058c-0.002-0.119-0.002-0.237,0-0.354
			c0-0.043-0.005-0.086-0.015-0.129c-0.036-0.166-0.131-0.276-0.291-0.315c-0.056-0.015-0.108-0.025-0.168-0.025
			c-0.228,0-0.453,0-0.681,0c-0.061,0-0.117,0.008-0.174,0.025c-0.094,0.026-0.168,0.082-0.219,0.164
			c-0.051,0.086-0.08,0.175-0.08,0.276c0,0.328,0,0.652,0,0.976c0,0.05,0.006,0.102,0.014,0.153c0.025,0.17,0.166,0.316,0.334,0.349
			c0.052,0.01,0.101,0.014,0.156,0.014c0.17,0,0.34,0,0.51,0c0.171,0,0.347,0,0.523,0c0.02,0,0.035,0,0.055,0
			c0.021-0.002,0.029-0.008,0.029-0.029c0-0.016,0-0.029,0-0.047c0-0.117,0-0.233,0-0.348c0-0.082,0.006-0.076-0.076-0.076
			c-0.299,0-0.596,0-0.893,0c-0.02,0-0.036,0-0.057,0c-0.033-0.004-0.056-0.022-0.072-0.053c-0.006-0.015-0.01-0.029-0.014-0.045
			c-0.011-0.064-0.011-0.068,0.051-0.09C46.697,28.966,46.915,28.884,47.135,28.802z M46.442,28.612
			c-0.012,0.006-0.023-0.002-0.023-0.015c-0.002-0.036,0-0.067,0-0.1h-0.002c0-0.021,0-0.049,0-0.072
			c0-0.053,0.031-0.085,0.078-0.106c0.024-0.011,0.054-0.019,0.08-0.019c0.117,0,0.232,0,0.349,0c0.026,0,0.053,0.004,0.075,0.021
			c0.012,0.01,0.024,0.02,0.031,0.034c0.009,0.02,0.005,0.037-0.015,0.046c-0.009,0.006-0.02,0.01-0.03,0.014
			c-0.175,0.063-0.347,0.125-0.519,0.188C46.458,28.607,46.45,28.61,46.442,28.612z"/>
	</g>
</g>
<g>
	<g>
		<path d="M29.783,28.274c0.02,0,0.036,0,0.055,0c0.252,0,0.504,0,0.756,0c0.021,0,0.041,0,0.062,0
			c0.012-0.002,0.02-0.01,0.021-0.022c0-0.01,0-0.021,0-0.032c0-0.131,0-0.265-0.002-0.396c-0.005-0.012-0.005-0.019-0.005-0.028
			c-0.004-0.012-0.01-0.02-0.021-0.021c-0.016,0-0.032,0-0.049,0c-0.311,0-0.616,0-0.926,0c-0.049,0-0.096,0.005-0.143,0.015
			c-0.117,0.024-0.215,0.08-0.279,0.188c-0.037,0.064-0.062,0.14-0.062,0.213c-0.002,0.144,0,0.281,0,0.423
			c0,0.067,0.021,0.133,0.064,0.185c0.104,0.123,0.229,0.204,0.396,0.204c0.121,0,0.244,0,0.367,0c0.016,0,0.031-0.002,0.049,0
			c0.051,0.007,0.086,0.041,0.09,0.093c0.002,0.016,0.002,0.032,0,0.049c-0.004,0.049-0.027,0.08-0.078,0.088
			c-0.021,0.004-0.045,0.004-0.066,0.004c-0.252,0-0.504,0-0.756,0c-0.02,0-0.035,0-0.055,0c-0.018,0.002-0.023,0.012-0.023,0.027
			c0,0.012,0,0.021,0,0.033c0,0.127,0,0.254,0,0.381c0,0.012,0,0.022,0,0.034c0.002,0.013,0.008,0.021,0.021,0.021
			c0.019,0.004,0.037,0.004,0.055,0.004c0.158,0,0.318,0,0.478,0c0.166,0,0.332,0,0.498,0c0.102-0.004,0.195-0.027,0.272-0.102
			c0.031-0.027,0.058-0.06,0.08-0.093c0.043-0.065,0.076-0.135,0.08-0.215c0.004-0.125,0.006-0.25,0.011-0.373
			c0-0.022-0.003-0.045-0.009-0.067c-0.017-0.086-0.058-0.162-0.11-0.229c-0.056-0.066-0.121-0.115-0.205-0.141
			c-0.037-0.01-0.076-0.01-0.114-0.01c-0.13,0-0.259,0-0.388,0c-0.033,0-0.062-0.005-0.095-0.013
			c-0.014-0.004-0.026-0.011-0.036-0.019c-0.031-0.026-0.05-0.088-0.031-0.125C29.705,28.309,29.732,28.279,29.783,28.274z"/>
	</g>
</g>
<g>
	<g>
		<path d="M26.618,21.087c-0.043-0.176-0.123-0.33-0.262-0.451c-0.108-0.095-0.235-0.154-0.374-0.189
			c-0.128-0.035-0.258-0.047-0.391-0.047c-0.365,0-0.73,0-1.096,0c-0.407,0-0.813,0-1.22,0c-0.075,0-0.072-0.004-0.072,0.074
			c0,0.311,0,0.623,0,0.934c0,0.016,0,0.031,0,0.049c0,0.013,0.01,0.023,0.026,0.023c0.021,0,0.041,0,0.062,0
			c0.676,0,1.352,0,2.029,0c0.045,0,0.09,0.002,0.135,0.014c0.086,0.024,0.141,0.073,0.153,0.184
			c0.003,0.029,0.001,0.059,0.001,0.09c-0.001,0.053-0.002,0.053-0.054,0.053c-0.017,0-0.032,0-0.048,0c-0.409,0-0.817,0-1.225,0
			c-0.087,0-0.173,0-0.259,0.012c-0.12,0.016-0.237,0.043-0.347,0.092c-0.186,0.086-0.318,0.222-0.398,0.41
			c-0.065,0.149-0.089,0.305-0.091,0.465c-0.004,0.307-0.003,0.613,0,0.92c0,0.098,0.012,0.197,0.036,0.295
			c0.038,0.154,0.107,0.29,0.221,0.4c0.1,0.094,0.221,0.158,0.353,0.197c0.16,0.049,0.324,0.065,0.49,0.065c0.436,0,0.872,0,1.307,0
			c0.078,0,0.153,0,0.231-0.01c0.123-0.013,0.239-0.047,0.352-0.11c0.158-0.092,0.275-0.221,0.359-0.381
			c0.09-0.168,0.121-0.351,0.121-0.539c0-0.73,0-1.463,0-2.193C26.657,21.325,26.645,21.206,26.618,21.087z M25.606,23.374
			c-0.003,0.109-0.059,0.178-0.164,0.205c-0.035,0.01-0.07,0.014-0.107,0.014c-0.136,0-0.271,0-0.407,0
			c-0.138,0-0.273-0.004-0.409,0c-0.092,0.002-0.165-0.035-0.23-0.098c-0.028-0.03-0.046-0.063-0.046-0.104
			c0-0.118,0.001-0.237,0.002-0.354c0-0.029,0.008-0.059,0.016-0.086c0.015-0.058,0.053-0.093,0.112-0.105
			c0.037-0.01,0.075-0.018,0.114-0.016c0.284,0,0.567,0,0.851-0.002c0.036,0,0.071,0.008,0.106,0.018
			c0.098,0.027,0.155,0.099,0.162,0.201c0.001,0.037,0.001,0.072,0.001,0.109C25.607,23.228,25.607,23.299,25.606,23.374z"/>
	</g>
</g>
<g>
	<g>
		<path d="M38.373,28.081c-0.037-0.152-0.134-0.243-0.283-0.28c-0.077-0.017-0.149-0.027-0.225-0.027c-0.338,0-0.676,0-1.014,0
			c-0.019,0-0.04,0-0.055,0c-0.015,0-0.025,0.01-0.025,0.027c0,0.014,0,0.026,0,0.039c0,0.112,0,0.225,0,0.334
			c0,0.08-0.004,0.073,0.074,0.073c0.296,0,0.598,0,0.897,0c0.023,0,0.043-0.002,0.062,0.002c0.077,0.014,0.096,0.029,0.098,0.104
			c0,0.017,0,0.031,0,0.048c0,0.012-0.009,0.021-0.021,0.021c-0.02,0-0.037,0-0.057,0c-0.186,0-0.371,0.002-0.559,0
			c-0.055,0-0.107,0.002-0.162,0.014c-0.168,0.039-0.279,0.137-0.322,0.307c-0.012,0.039-0.02,0.08-0.02,0.121
			c0.002,0.164-0.011,0.33,0.008,0.496c0.008,0.059,0.028,0.113,0.055,0.166c0.047,0.078,0.117,0.133,0.201,0.166
			c0.082,0.027,0.168,0.037,0.254,0.037c0.172,0,0.348,0,0.523,0c0.051,0,0.104,0.004,0.155,0c0.095-0.004,0.181-0.027,0.257-0.084
			c0.116-0.088,0.176-0.207,0.178-0.353c0.004-0.18,0.002-0.358,0.002-0.536c0-0.171-0.002-0.347,0-0.523
			C38.394,28.183,38.389,28.132,38.373,28.081z M37.902,29.12c0,0.023-0.007,0.049-0.019,0.072c-0.014,0.03-0.041,0.047-0.076,0.051
			c-0.018,0.002-0.035,0.004-0.053,0.004c-0.113,0-0.229,0-0.342,0c-0.021,0-0.041-0.002-0.062-0.006
			c-0.053-0.011-0.088-0.05-0.09-0.105c0-0.046,0-0.098,0-0.147c0.002-0.068,0.032-0.097,0.098-0.099
			c0.063-0.004,0.122-0.002,0.184-0.002c0.012,0,0.021,0,0.035,0c0.059,0,0.117,0,0.176,0c0.018,0,0.033-0.002,0.049,0.002
			c0.074,0.019,0.105,0.047,0.101,0.113C37.901,29.044,37.903,29.081,37.902,29.12z"/>
	</g>
</g>
<g>
	<g>
		<path d="M28.857,28.041c-0.013-0.038-0.031-0.075-0.063-0.109c-0.049-0.061-0.115-0.102-0.191-0.123
			c-0.077-0.022-0.159-0.035-0.241-0.035c-0.34,0-0.684,0-1.027,0c-0.02,0-0.036,0-0.055,0.003c-0.011,0-0.017,0.008-0.019,0.019
			c-0.002,0.011-0.002,0.019-0.002,0.032c0,0.123,0,0.244,0,0.367c0,0.053,0.002,0.055,0.053,0.055c0.015,0,0.027,0,0.041,0
			c0.246,0,0.49,0,0.734,0c0.062,0,0.118,0,0.18,0c0.027,0,0.054,0.005,0.078,0.017c0.023,0.012,0.039,0.032,0.043,0.059
			c0.002,0.01,0.002,0.019,0.002,0.031c0.002,0.074,0.004,0.07-0.067,0.07c-0.19,0-0.381,0.002-0.571,0
			c-0.056,0-0.109,0.002-0.162,0.018c-0.125,0.027-0.224,0.094-0.285,0.211c-0.037,0.074-0.051,0.154-0.051,0.236
			c-0.003,0.119-0.005,0.24,0,0.36c0,0.058,0.006,0.113,0.02,0.169c0.038,0.14,0.127,0.235,0.268,0.282
			c0.076,0.022,0.156,0.028,0.234,0.028c0.172,0,0.342,0,0.512,0c0.061,0,0.119,0.002,0.178,0c0.092-0.004,0.174-0.03,0.246-0.088
			c0.114-0.09,0.174-0.209,0.176-0.354c0.004-0.176,0-0.353,0-0.531c0-0.176,0-0.352,0.002-0.529
			C28.89,28.162,28.878,28.102,28.857,28.041z M28.392,29.143c-0.004,0.05-0.033,0.104-0.111,0.104c-0.132,0-0.267,0.002-0.4,0
			c-0.08-0.002-0.123-0.047-0.125-0.123c0-0.045-0.002-0.092,0.002-0.137c0.004-0.068,0.033-0.095,0.098-0.097
			c0.07-0.004,0.142-0.002,0.212-0.002c0.063,0,0.131,0,0.194,0c0.037-0.002,0.068,0.009,0.099,0.029
			c0.018,0.012,0.032,0.033,0.034,0.055C28.395,29.029,28.398,29.085,28.392,29.143z"/>
	</g>
</g>
<g>
	<g>
		<path d="M26.967,29.252c-0.002-0.012-0.013-0.02-0.023-0.02c-0.018-0.004-0.035-0.004-0.055-0.004c-0.131,0-0.265,0-0.396,0
			c-0.069,0-0.142,0.004-0.211,0c-0.063-0.002-0.108-0.041-0.125-0.104c-0.006-0.023-0.008-0.049-0.008-0.072
			c0-0.219,0-0.434,0-0.646c0-0.016,0-0.029,0.002-0.041c0.008-0.062,0.032-0.084,0.092-0.09c0.021-0.004,0.041-0.004,0.062-0.004
			c0.191,0,0.388,0,0.578,0c0.021,0,0.037,0,0.055,0c0.021-0.002,0.027-0.008,0.029-0.027c0-0.027,0-0.057,0-0.082
			c0-0.105,0-0.209,0-0.312c0.006-0.079,0.008-0.076-0.069-0.076c-0.268,0-0.534,0-0.803,0c-0.045,0-0.09,0.007-0.135,0.017
			c-0.161,0.037-0.258,0.136-0.288,0.298c-0.009,0.045-0.013,0.09-0.013,0.137c0,0.168,0,0.334,0,0.504c0,0.166,0,0.334,0,0.502
			c0,0.055,0.002,0.104,0.014,0.156c0.031,0.164,0.126,0.272,0.289,0.317c0.064,0.019,0.132,0.026,0.201,0.026
			c0.244,0,0.49,0,0.734,0c0.016,0,0.031,0,0.047-0.002c0.014,0,0.021-0.008,0.023-0.02c0.002-0.012,0.002-0.023,0.002-0.035
			c0-0.129,0-0.258,0-0.387C26.969,29.275,26.969,29.264,26.967,29.252z"/>
	</g>
</g>
<g>
	<g>
		<path d="M32.587,28.079c-0.03-0.101-0.094-0.191-0.2-0.244c-0.078-0.039-0.16-0.062-0.248-0.062c-0.19,0-0.381,0-0.571,0
			c-0.089,0-0.08,0.008-0.08-0.08c0-0.189,0-0.375,0-0.564c0-0.02-0.002-0.041-0.002-0.061c-0.002-0.014-0.011-0.02-0.021-0.02
			c-0.016-0.002-0.031-0.002-0.049-0.002c-0.115,0-0.234,0-0.354,0c-0.086,0-0.078-0.007-0.078,0.077c0,0.423,0,0.845,0,1.267
			c0,0.418,0,0.836,0,1.254c0,0.021,0,0.041,0.002,0.062c0,0.016,0.012,0.021,0.025,0.023c0.018,0,0.03,0,0.047,0
			c0.113,0,0.229,0,0.342,0c0.086,0,0.084,0.012,0.084-0.086c0-0.402,0-0.81,0-1.213c0-0.019,0.002-0.035,0-0.056
			c-0.004-0.055,0.049-0.096,0.092-0.103c0.012-0.002,0.021-0.002,0.033-0.002c0.131,0,0.26,0,0.389,0c0.01,0,0.02,0,0.027,0.002
			c0.049,0.007,0.07,0.027,0.084,0.074c0.008,0.031,0.006,0.062,0.006,0.088c0,0.402,0,0.802,0,1.199c0,0.021,0,0.041,0,0.062
			c0.002,0.025,0.008,0.029,0.035,0.031c0.016,0,0.029,0,0.047,0c0.107,0,0.219,0,0.326,0c0.016,0,0.031,0,0.049,0
			c0.029-0.002,0.031-0.006,0.033-0.039c0-0.006,0-0.012,0-0.021c0-0.489,0-0.979,0-1.471
			C32.605,28.155,32.599,28.116,32.587,28.079z"/>
	</g>
</g>
<g>
	<g>
		<path d="M36.424,28.592c0-0.114,0-0.23-0.001-0.347c0-0.056-0.007-0.107-0.021-0.16c-0.039-0.133-0.123-0.226-0.257-0.273
			c-0.071-0.022-0.144-0.037-0.219-0.037c-0.222,0-0.44,0-0.66,0c-0.082,0-0.162,0.019-0.237,0.05
			c-0.086,0.037-0.148,0.099-0.185,0.183c-0.014,0.036-0.026,0.073-0.033,0.11c-0.015,0.078-0.022,0.155-0.022,0.235
			c0,0.673,0,1.347,0,2.021c0,0.027,0.004,0.055-0.006,0.082c0.168,0,0.336,0,0.504,0c0-0.215,0-0.428,0-0.643
			c0-0.021,0-0.041,0.002-0.062c0-0.01,0.009-0.018,0.021-0.022c0.02,0,0.037,0,0.055,0c0.193,0,0.387-0.002,0.58,0
			c0.113,0,0.215-0.034,0.301-0.104c0.117-0.094,0.182-0.211,0.18-0.365C36.422,29.037,36.424,28.815,36.424,28.592z M35.93,28.75
			c0,0.113,0,0.228,0,0.341c0,0.022-0.002,0.044-0.012,0.065c-0.021,0.049-0.055,0.073-0.109,0.075c-0.041,0-0.082,0-0.123,0
			c-0.069,0-0.141,0-0.211,0c-0.018,0-0.03,0-0.047,0c-0.094-0.01-0.125-0.053-0.137-0.135c-0.002-0.012-0.002-0.026-0.002-0.039
			c0-0.201,0-0.403,0-0.604c0-0.043,0.009-0.078,0.031-0.117c0.022-0.039,0.053-0.062,0.098-0.062c0.133,0,0.266,0,0.395,0
			c0.074,0,0.119,0.054,0.119,0.123C35.928,28.515,35.93,28.632,35.93,28.75z"/>
	</g>
</g>
<g>
	<g>
		<path d="M33.174,29.111c-0.168,0-0.309,0.139-0.309,0.307c0,0.162,0.115,0.31,0.311,0.313c0.187,0.007,0.314-0.164,0.308-0.307
			C33.494,29.276,33.364,29.111,33.174,29.111z"/>
	</g>
</g>
<g>
	<g>
		<path d="M37.077,24.27h-1.431c-0.079,0-0.161-0.006-0.241-0.016c-0.062-0.006-0.119-0.014-0.173-0.031
			c-0.129-0.045-0.213-0.096-0.272-0.166c-0.067-0.078-0.118-0.174-0.149-0.281c-0.029-0.108-0.045-0.228-0.045-0.372l-0.002-1.17
			l0.002-0.586c0-0.104-0.002-0.206,0.006-0.31c0.006-0.061,0.014-0.12,0.029-0.178c0.024-0.096,0.067-0.169,0.129-0.225
			c0.041-0.036,0.09-0.066,0.162-0.096c0.118-0.046,0.254-0.067,0.407-0.067l0.502-0.001l1.009,0.001
			c0.024,0,0.051-0.001,0.062-0.002l0.178-0.023v-0.355l-0.025-0.162l-0.137-0.013c-0.023-0.002-0.051-0.003-0.074-0.003H35.67
			c-0.125,0-0.252,0.001-0.379,0.011c-0.096,0.008-0.209,0.021-0.32,0.056c-0.192,0.063-0.356,0.181-0.508,0.357
			c-0.111,0.133-0.188,0.288-0.221,0.461c-0.018,0.092-0.025,0.188-0.025,0.293v2.16c0,0.139,0.021,0.281,0.062,0.422
			c0.072,0.258,0.221,0.469,0.438,0.625c0.121,0.084,0.242,0.141,0.363,0.166c0.161,0.042,0.332,0.062,0.525,0.062h1.49h0.008
			c0.097-0.01,0.16-0.078,0.166-0.18v-0.168C37.269,24.305,37.165,24.27,37.077,24.27z"/>
	</g>
</g>
<g>
</g>
<g>
</g>
<g>
</g>
<g>
</g>
<g>
</g>
<g>
</g>
<g>
</g>
<g>
</g>
<g>
</g>
<g>
</g>
<g>
</g>
<g>
</g>
<g>
</g>
<g>
</g>
<g>
</g>
</svg>
