<?xml version="1.0" encoding="UTF-8" standalone="no"?>
<svg
   xmlns:dc="http://purl.org/dc/elements/1.1/"
   xmlns:cc="http://creativecommons.org/ns#"
   xmlns:rdf="http://www.w3.org/1999/02/22-rdf-syntax-ns#"
   xmlns:svg="http://www.w3.org/2000/svg"
   xmlns="http://www.w3.org/2000/svg"
   viewBox="0 0 1333.3333 1333.3333"
   height="1333.3333"
   width="1333.3333"
   xml:space="preserve"
   id="svg2"
   version="1.1"><metadata
     id="metadata8"><rdf:RDF><cc:Work
         rdf:about=""><dc:format>image/svg+xml</dc:format><dc:type
           rdf:resource="http://purl.org/dc/dcmitype/StillImage" /></cc:Work></rdf:RDF></metadata><defs
     id="defs6" /><g
     transform="matrix(1.3333333,0,0,-1.3333333,0,1333.3333)"
     id="g10"><g
       transform="translate(236.0391,696.7285)"
       id="g12"><path
         id="path14"
         style="fill:#2ecc71;fill-opacity:1;fill-rule:nonzero;stroke:none"
         d="M 0,0 338.869,-556.325 547.002,-48.923 239.949,138.011 Z" /></g><g
       transform="translate(207.1831,663.875)"
       id="g16"><path
         id="path18"
         style="fill:#2ecc71;fill-opacity:1;fill-rule:nonzero;stroke:none"
         d="M 0,0 332.447,-534.536 -0.183,-177.539 Z" /></g><g
       transform="translate(223.4961,735.8457)"
       id="g20"><path
         id="path22"
         style="fill:#2ecc71;fill-opacity:1;fill-rule:nonzero;stroke:none"
         d="M 0,0 219.004,125.547 103.715,135.765 39.619,89.802 Z" /></g><g
       transform="translate(236,697)"
       id="g24"><path
         id="path26"
         style="fill:#44d880;fill-opacity:1;fill-rule:nonzero;stroke:none"
         d="M 0,0 322,-64 240,138 Z" /></g><g
       transform="translate(223.4961,735.8457)"
       id="g28"><path
         id="path30"
         style="fill:#44d880;fill-opacity:1;fill-rule:nonzero;stroke:none"
         d="m 0,0 149.819,85.886 -110.2,3.916 z" /></g><g
       transform="translate(207.1831,663.875)"
       id="g32"><path
         id="path34"
         style="fill:#44d880;fill-opacity:1;fill-rule:nonzero;stroke:none"
         d="m 0,0 -0.183,-177.539 71.009,-13.618 z" /></g><g
       transform="translate(327.2114,871.6108)"
       id="g36"><path
         id="path38"
         style="fill:#33bc6a;fill-opacity:1;fill-rule:nonzero;stroke:none"
         d="m 0,0 46.104,-49.879 69.185,39.661 z" /></g><g
       transform="translate(207.1831,663.875)"
       id="g40"><path
         id="path42"
         style="fill:#33bc6a;fill-opacity:1;fill-rule:nonzero;stroke:none"
         d="M 0,0 70.826,-191.157 332.447,-534.536 Z" /></g><g
       transform="translate(558,633)"
       id="g44"><path
         id="path46"
         style="fill:#33bc6a;fill-opacity:1;fill-rule:nonzero;stroke:none"
         d="M 0,0 16.908,-492.597 225.041,14.805 Z" /></g></g></svg>