<svg id="Layer_1" height="512" viewBox="0 0 512 512" width="512" xmlns="http://www.w3.org/2000/svg" xmlns:xlink="http://www.w3.org/1999/xlink" data-name="Layer 1"><linearGradient id="linear-gradient" gradientUnits="userSpaceOnUse" x1="255.997" x2="255.997" y1="490.5" y2="71.693"><stop offset=".322" stop-color="#a163f5"/><stop offset=".466" stop-color="#b074ee"/><stop offset=".752" stop-color="#d8a1dd"/><stop offset=".898" stop-color="#efbad3"/></linearGradient><linearGradient id="linear-gradient-2" x1="296.837" x2="296.837" xlink:href="#linear-gradient" y1="490.5" y2="71.693"/><linearGradient id="linear-gradient-3" x1="297" x2="297" xlink:href="#linear-gradient" y1="490.5" y2="71.693"/><linearGradient id="linear-gradient-4" x1="221" x2="221" xlink:href="#linear-gradient" y1="490.5" y2="71.693"/><linearGradient id="linear-gradient-6" x1="258.577" x2="258.577" xlink:href="#linear-gradient" y1="490.5" y2="71.693"/><path d="m472.544 497.756a32.821 32.821 0 0 0 -31.383-30.579 35.526 35.526 0 0 0 -46.707-31.992 30.622 30.622 0 0 0 -44.788-17.475 22.741 22.741 0 0 0 -41.666 12.39v13.075a13.5 13.5 0 1 1 -27 0v-132.175h21v34.494c0 3.314 2.6 5.506 5.913 5.506h23.681c3.313 0 6.406-2.192 6.406-5.506v-14.494h18v14.494c0 3.314 2.868 5.506 6.182 5.506h23.681c3.313 0 6.137-2.192 6.137-5.506v-77.567a54.925 54.925 0 0 0 -54.867-54.842 23.155 23.155 0 0 1 -23.133-23.108v-74.434c0-31.617-4.357-43.768-12.188-65.825-1.861-5.243-3.993-11.185-6.3-18.114a38.917 38.917 0 0 0 -73.836 0c-2.31 6.928-4.543 12.87-6.4 18.112-7.838 22.058-12.276 34.209-12.276 65.827v74.434a23.155 23.155 0 0 1 -23.133 23.108 54.925 54.925 0 0 0 -54.867 54.842v77.567c0 3.314 2.979 5.506 6.292 5.506h23.681c3.314 0 6.027-2.192 6.027-5.506v-14.494h19v14.494a5.235 5.235 0 0 0 5.561 5.506h23.681c3.314 0 5.758-2.192 5.758-5.506v-34.494h21v132.179a13.5 13.5 0 1 1 -27 0v-3.7a22.109 22.109 0 0 0 -40.228-12.594 35.639 35.639 0 0 0 -59.19 24.558 25.934 25.934 0 0 0 -24.938 8.78 35.585 35.585 0 0 0 -44.323 42.1 6 6 0 0 0 5.852 4.677h.041l420.386-2.839a6 6 0 0 0 5.945-6.405zm-92.544-158.756h-12v-8h12zm-66-122.626a34.667 34.667 0 0 0 23.133 8.711 42.912 42.912 0 0 1 42.867 42.842v31.073h-66zm0 94.626h66v8h-66zm0 20h12v8h-12zm-165 8h-12v-8h12zm54 0h-11v-8h11zm0-20h-66v-8h66zm0-20h-66v-31.073a42.912 42.912 0 0 1 42.867-42.842 34.667 34.667 0 0 0 23.133-8.711zm99 0h-21v-20h21zm-87-183.457c0-29.551 3.949-40.333 11.574-61.812 1.88-5.293 4.071-11.293 6.417-18.333 4.522-13.565 16.181-18.398 25.556-18.398s21.02 4.833 25.541 18.4c2.347 7.04 4.528 13.041 6.408 18.335 7.625 21.478 11.5 32.26 11.5 61.81v151.455h-86.996zm54 163.457v20h-21v-20zm-54 20v-20h21v20zm-163.555 195.964a23.609 23.609 0 0 1 39.432-17.987 6 6 0 0 0 8.037-8.912 35.6 35.6 0 0 0 -2.827-2.281 13.974 13.974 0 0 1 22.079 8.06 6 6 0 1 0 11.706-2.64 25.829 25.829 0 0 0 -8.191-13.776l-.176-4.013a23.606 23.606 0 0 1 46.023-7.269 6 6 0 0 0 11.4-3.755 35.823 35.823 0 0 0 -1.981-4.8 10.125 10.125 0 0 1 20.053 1.888v3.7a25.5 25.5 0 1 0 51 0v-132.179h21v132.179a25.5 25.5 0 1 0 51 0v-13.079a10.676 10.676 0 0 1 20.434-4.181 30.338 30.338 0 0 0 -3 5 6.014 6.014 0 0 0 10.851 5.188 18.7 18.7 0 0 1 3.23-4.708 18.5 18.5 0 0 1 13.624-5.9 18.722 18.722 0 0 1 18.385 15.562c-.836.661-1.653 1.348-2.432 2.088a6 6 0 1 0 8.26 8.7 23.6 23.6 0 0 1 39.86 17.051 32.841 32.841 0 0 0 -15.522 11.17 6 6 0 0 0 9.54 7.278 20.843 20.843 0 0 1 35.9 4.863z" fill="url(#linear-gradient)"/><path d="m296.837 411.524a5.863 5.863 0 0 0 -5.837 6v.075a5.787 5.787 0 0 0 5.783 5.963 5.941 5.941 0 0 0 5.891-6.038 5.863 5.863 0 0 0 -5.837-6z" fill="url(#linear-gradient-2)"/><path d="m303 360.627a6 6 0 1 0 -12 0v39.927a6 6 0 0 0 12 0z" fill="url(#linear-gradient-3)"/><path d="m215 417.524a6 6 0 0 0 12 0v-39.393a6 6 0 0 0 -12 0z" fill="url(#linear-gradient-4)"/><path d="m221 367.085a6 6 0 0 0 6-6v-.458a6 6 0 1 0 -12 0v.458a6 6 0 0 0 6 6z" fill="url(#linear-gradient-4)"/><path d="m258.578 64.2a38.374 38.374 0 0 0 -36.911 26.6 6 6 0 0 0 11.384 3.8c4.522-13.565 16.151-18.4 25.527-18.4s21 4.834 25.526 18.4a6 6 0 0 0 11.383-3.8 38.372 38.372 0 0 0 -36.909-26.6z" fill="url(#linear-gradient-6)"/></svg>